<svg width="60" height="60" viewBox="0 0 60 60" fill="none" xmlns="http://www.w3.org/2000/svg">
<path d="M30 13.5601C25.1772 13.5605 20.4449 14.8691 16.3071 17.3463C12.1692 19.8236 8.78069 23.3768 6.50249 27.6276C5.92672 28.7046 5.62549 29.9069 5.62549 31.1282C5.62549 32.3494 5.92672 33.5518 6.50249 34.6288C8.78046 38.8797 12.1689 42.433 16.3069 44.9102C20.4448 47.3874 25.1772 48.6956 30 48.6956C34.8228 48.6956 39.5552 47.3874 43.6931 44.9102C47.8311 42.433 51.2195 38.8797 53.4975 34.6288C54.0733 33.5518 54.3745 32.3494 54.3745 31.1282C54.3745 29.9069 54.0733 28.7046 53.4975 27.6276C51.2193 23.3768 47.8308 19.8236 43.6929 17.3463C39.5551 14.8691 34.8227 13.5605 30 13.5601Z" stroke="black" stroke-width="0.5" stroke-linecap="round" stroke-linejoin="round"/>
<path d="M29.9999 46.7074C34.2884 46.7074 37.7649 44.0759 37.7649 40.8299C37.7649 37.5838 34.2884 34.9524 29.9999 34.9524C25.7114 34.9524 22.2349 37.5838 22.2349 40.8299C22.2349 44.0759 25.7114 46.7074 29.9999 46.7074Z" stroke="black" stroke-width="0.5" stroke-linecap="round" stroke-linejoin="round"/>
<path d="M30.0001 42.8637C31.8544 42.8637 33.3576 41.726 33.3576 40.3225C33.3576 38.919 31.8544 37.7812 30.0001 37.7812C28.1458 37.7812 26.6426 38.919 26.6426 40.3225C26.6426 41.726 28.1458 42.8637 30.0001 42.8637Z" stroke="black" stroke-width="0.5" stroke-linecap="round" stroke-linejoin="round"/>
<path d="M26.2826 35.67C27.9701 32.6725 28.1801 28.935 26.2826 27.1513C24.1576 25.1575 17.0351 25.5138 12.4751 34.9525C13.6244 37.83 15.501 40.3599 17.9213 42.2946C20.3416 44.2293 23.2226 45.5027 26.2826 45.99" stroke="black" stroke-width="0.5" stroke-linecap="round" stroke-linejoin="round"/>
<path d="M23.9448 31.1174C24.4626 31.1174 24.8823 30.6977 24.8823 30.1799C24.8823 29.6622 24.4626 29.2424 23.9448 29.2424C23.4271 29.2424 23.0073 29.6622 23.0073 30.1799C23.0073 30.6977 23.4271 31.1174 23.9448 31.1174Z" fill="black"/>
<path d="M13.3426 33.3163C12.6988 32.4098 12.1231 31.4568 11.6201 30.4651C11.6201 30.4651 15.7526 25.3351 21.1664 25.3351C22.3387 25.2807 23.496 25.6161 24.4576 26.2888M9.04138 23.7563C7.53138 20.9013 6.81138 15.2376 6.76263 12.4276C6.7582 12.2569 6.78842 12.0872 6.85146 11.9286C6.9145 11.7699 7.00905 11.6257 7.1294 11.5047C7.24974 11.3837 7.39338 11.2883 7.55164 11.2243C7.70989 11.1603 7.87948 11.1291 8.05013 11.1326C10.4714 11.1813 15.8339 11.8063 18.5214 16.1551M33.7176 35.6701C32.0301 32.6726 31.8201 28.9351 33.7176 27.1513C35.8426 25.1576 42.9651 25.5138 47.5251 34.9526C46.3758 37.8301 44.4992 40.3599 42.0789 42.2946C39.6586 44.2294 36.7776 45.5027 33.7176 45.9901" stroke="black" stroke-width="0.5" stroke-linecap="round" stroke-linejoin="round"/>
<path d="M36.0552 31.1174C36.5729 31.1174 36.9927 30.6977 36.9927 30.1799C36.9927 29.6622 36.5729 29.2424 36.0552 29.2424C35.5374 29.2424 35.1177 29.6622 35.1177 30.1799C35.1177 30.6977 35.5374 31.1174 36.0552 31.1174Z" fill="black"/>
<path d="M46.6575 33.3163C47.3013 32.4097 47.8771 31.4567 48.38 30.465C48.38 30.465 44.2475 25.335 38.8337 25.335C37.6614 25.2807 36.5041 25.6161 35.5425 26.2888M50.9587 23.7563C52.4687 20.9013 53.1887 15.2363 53.2362 12.4275C53.2406 12.2571 53.2105 12.0876 53.1476 11.9291C53.0847 11.7707 52.9904 11.6266 52.8703 11.5056C52.7503 11.3846 52.6069 11.2891 52.4489 11.225C52.291 11.1609 52.1217 11.1294 51.9512 11.1325C49.53 11.1813 44.1675 11.8063 41.48 16.155" stroke="black" stroke-width="0.5" stroke-linecap="round" stroke-linejoin="round"/>
</svg>
