<svg width="60" height="60" viewBox="0 0 60 60" fill="none" xmlns="http://www.w3.org/2000/svg">
<path d="M28.0924 5.08125C28.0924 5.08125 29.5033 5.52188 30.0142 5.75156L42.5955 19.0172C42.5955 19.0172 43.0361 19.6219 44.0064 19.9125L43.5986 23.8734L35.5502 25.7344L24.183 17.4234L22.0549 8.77969L28.0924 5.08125ZM3.41735 22.4813C3.41735 22.4813 3.10329 19.8188 3.56735 17.7563L14.2549 5.59219C14.2549 5.59219 14.6486 5.32969 16.2377 4.96875L20.7236 6.7875L19.1955 19.4859L6.49704 29.7234L3.41735 22.4813Z" fill="#855C52"/>
<path d="M59.1426 20.8593C58.4769 20.5171 57.7129 21.0375 57.1363 21.3187C54.1504 22.7484 51.6613 23.714 48.2676 22.9265C47.3488 21.8484 46.2004 20.9625 44.9254 20.2875C44.5504 20.0906 44.0816 19.8375 43.641 19.9031C43.4769 19.9312 43.3973 20.0625 43.2941 20.1843C42.8769 20.6859 42.5723 21.2906 42.1035 21.7406C41.6535 22.1671 40.9551 22.4718 40.266 22.5703C40.2004 22.575 40.1348 22.5843 40.0691 22.5843C37.0082 22.5843 35.7472 19.4343 34.9926 17.5546C34.8707 17.2546 34.7629 16.9828 34.6598 16.7578C34.1535 15.6796 33.1832 15.1125 31.6457 14.2687C31.3926 14.1281 31.1394 13.9921 30.8863 13.8468C29.9347 13.3078 29.1988 12.7453 28.6316 12.1218C27.5254 10.9078 27.0379 9.46401 27.1879 7.83276C27.2769 6.84839 27.6004 5.91558 28.0926 5.0812C27.0519 4.77651 24.6285 4.15308 22.0785 4.15308C19.8238 4.15308 17.4801 4.64526 16.2379 4.9687C16.7676 5.8312 17.1098 6.81089 17.2035 7.83745C17.3488 9.46401 16.8613 10.9078 15.7551 12.1265C15.1879 12.7453 14.4519 13.3125 13.5051 13.8468C13.2519 13.9921 12.9988 14.1281 12.7457 14.2687C11.2082 15.1125 10.2379 15.6843 9.73163 16.7625C9.62381 16.9874 9.516 17.2593 9.39881 17.5593C8.64413 19.439 7.3785 22.5843 4.29881 22.5843C3.99413 22.5796 3.7035 22.5421 3.41756 22.4812C3.40819 22.9265 3.39881 23.3718 3.41756 23.8218C3.71288 29.4656 5.54569 35.2734 9.58631 38.8875C10.4488 39.6609 11.4285 40.2984 12.4551 40.8656C12.4551 40.8656 12.3941 47.9906 12.3238 49.9265C12.2676 51.6 11.4988 55.1671 13.3457 56.2312C15.6285 57.5484 20.3019 57.7968 21.9238 55.364C22.6129 54.3234 22.7535 53.0531 22.7535 51.8484C22.7535 50.4656 22.8332 49.9218 22.8332 48.5343C22.8332 47.9484 22.6129 46.8609 23.0535 46.4015C23.316 46.125 23.6629 46.1906 23.9957 46.1906C24.5254 46.1906 25.0644 46.1343 25.5941 46.0828C28.5754 45.7781 28.3316 47.2031 28.5848 49.3125C28.7676 50.8453 28.4816 52.3687 28.3598 53.9109C28.2004 55.9359 30.0707 56.6765 31.8801 56.7656C33.8019 56.8593 36.1879 56.6484 37.8894 55.6828C39.6707 54.6656 38.9769 53.0671 38.9113 51.4125C38.8644 50.2593 38.7707 49.1062 38.6816 47.9578C38.6113 47.0203 38.4426 46.0874 38.4894 45.1453C38.5363 44.325 38.3535 42.9 39.3941 42.5578C40.1301 42.314 40.9551 42.5578 41.7191 42.4125C42.8441 42.2062 42.7644 44.4468 42.7973 45.0468C42.8769 46.4953 42.666 47.5406 44.0066 48.4218C45.6004 49.4718 48.2535 49.1953 49.9785 48.689C53.1098 47.7656 52.0691 45.0796 52.2191 42.6187C52.3691 40.2421 52.3598 37.889 52.2004 35.5125C52.0363 33.0421 51.7129 30.5296 50.991 28.1765C52.4066 28.5609 53.9488 28.5703 55.3269 28.1625C57.1598 27.6187 58.5894 26.3812 59.2785 24.6375C59.6019 23.8171 60.2582 21.4265 59.1426 20.8593Z" fill="#F79329"/>
<path d="M2.95336 20.1796C3.35649 20.4375 3.80649 20.6015 4.30336 20.6015H4.31274C4.38774 20.6015 4.45805 20.5875 4.52836 20.5828C4.5893 20.5734 4.64086 20.5781 4.68774 20.5687C4.78617 20.55 4.87524 20.5171 4.9643 20.489C4.98774 20.4796 5.01586 20.475 5.03461 20.4656C5.14711 20.4234 5.25492 20.3671 5.35336 20.3015H5.35805C6.71742 19.4578 7.38774 17.0906 7.93617 15.9234C8.86899 13.9359 10.7393 13.139 12.5205 12.1312C13.2002 11.7468 13.8143 11.3062 14.2877 10.7953C14.944 10.0734 15.3284 9.18276 15.2299 8.02495V8.01558C15.2112 7.7812 15.169 7.5562 15.1127 7.33589C15.0846 7.22339 15.0377 7.11558 15.0049 7.00308C14.9721 6.90464 14.944 6.8062 14.9065 6.71245C14.8409 6.55308 14.7612 6.39839 14.6768 6.24839C14.658 6.21089 14.6393 6.17339 14.6205 6.14058C14.5169 5.96201 14.4026 5.78982 14.2784 5.62495C14.2737 5.61558 14.2643 5.61089 14.2596 5.6062C14.1096 5.40933 13.9455 5.22651 13.7674 5.05308L13.7159 5.00151C13.5518 4.84214 13.369 4.69683 13.1815 4.56089L13.0784 4.48589C12.9096 4.37339 12.7268 4.27026 12.544 4.17651C12.483 4.14839 12.4315 4.11089 12.3752 4.08745C12.1737 3.99839 11.9627 3.92339 11.7518 3.86245C11.7143 3.84839 11.6768 3.82964 11.6393 3.82026C11.194 3.70776 10.758 3.63276 10.3268 3.5812C10.1909 3.56245 10.0549 3.56245 9.91899 3.55308C9.6893 3.53433 9.45024 3.5062 9.22523 3.5062C9.17367 3.5062 9.12211 3.51558 9.07524 3.51558C8.91586 3.52026 8.76586 3.53433 8.60649 3.5437C8.36274 3.56245 8.11899 3.5812 7.88461 3.6187C7.72055 3.64683 7.56117 3.67964 7.4018 3.71714C7.18617 3.76401 6.97055 3.81558 6.75961 3.8812C6.60024 3.93276 6.44086 3.98433 6.28617 4.04526C6.08461 4.11558 5.89242 4.19995 5.70024 4.28901C5.55024 4.35933 5.39555 4.43433 5.25024 4.50933C5.06742 4.60776 4.89399 4.71558 4.72055 4.82808C4.57992 4.91714 4.43461 5.0062 4.29867 5.09995C4.12992 5.22183 3.96586 5.35776 3.80649 5.4937C3.67992 5.60151 3.55336 5.69995 3.43149 5.80776C3.26274 5.97183 3.10336 6.14526 2.94399 6.3187C2.75649 6.52026 2.58305 6.73589 2.4143 6.9562C2.27836 7.12964 2.14242 7.30308 2.02055 7.48589C1.91274 7.64526 1.82367 7.8187 1.72524 7.98276C1.63149 8.14214 1.53305 8.29683 1.44867 8.46558C1.35492 8.6437 1.27524 8.8312 1.19086 9.0187C1.12055 9.18276 1.04555 9.34683 0.979923 9.51558C0.904923 9.70776 0.839298 9.90933 0.778361 10.1062C0.722111 10.275 0.670548 10.4437 0.623673 10.6171C0.562736 10.8093 0.511173 11.0203 0.468986 11.2312C0.431486 11.4 0.403361 11.5781 0.375236 11.7515C0.342423 11.9671 0.309611 12.1875 0.286173 12.4078C0.267423 12.5765 0.262736 12.7546 0.253361 12.9281C0.239298 13.1578 0.225236 13.3828 0.229923 13.6125C0.229923 13.7812 0.248673 13.9453 0.253361 14.1093C0.267423 14.3484 0.276798 14.5921 0.304923 14.8359C0.318986 14.9625 0.347111 15.089 0.370548 15.2203C0.412736 15.4875 0.445548 15.75 0.501798 16.0171C0.797111 17.3203 1.61274 19.3078 2.9393 20.1703C2.94399 20.175 2.94867 20.1796 2.95336 20.1796ZM29.6627 6.32808C29.5877 6.47339 29.5221 6.61401 29.4612 6.76401C29.4284 6.8437 29.4049 6.92339 29.3768 7.00308C29.3393 7.12026 29.2971 7.23745 29.2643 7.35933C29.2174 7.55151 29.1846 7.7437 29.1612 7.94526C29.1612 7.96401 29.1518 7.98745 29.1518 8.0062C29.044 9.17339 29.4284 10.064 30.0893 10.7859C30.5674 11.3015 31.1862 11.7375 31.8612 12.1218C32.8362 12.675 33.8346 13.1671 34.6971 13.8234C35.4096 14.3671 36.0284 15.014 36.4502 15.914C36.9518 16.9921 37.5659 19.0921 38.7237 20.0718C38.7377 20.0859 38.7518 20.0906 38.7659 20.1046C38.8502 20.1703 38.9346 20.2359 39.019 20.2921C39.0518 20.3109 39.0846 20.325 39.1127 20.339C39.1877 20.3812 39.2627 20.4234 39.3424 20.4562C39.3893 20.475 39.4362 20.4843 39.4877 20.4984C39.558 20.5171 39.6237 20.5453 39.694 20.5593C39.7549 20.5734 39.8159 20.5734 39.8768 20.5781C39.9424 20.5875 40.0034 20.5968 40.0643 20.5968H40.0784C42.2252 20.5875 43.4862 17.714 43.8752 16.0125C43.908 15.8625 43.9221 15.7125 43.9502 15.5578C43.9971 15.3046 44.044 15.0515 44.0768 14.7984C44.1002 14.6156 44.1049 14.4375 44.1143 14.2593C44.1284 14.025 44.1471 13.7953 44.1471 13.5609C44.1471 13.3828 44.1377 13.2093 44.133 13.0312C44.1237 12.8015 44.1096 12.5718 44.0862 12.3421C44.0674 12.1687 44.044 12 44.0205 11.8265C43.9877 11.5968 43.9455 11.3718 43.8987 11.1468C43.8659 10.9828 43.8284 10.8234 43.7862 10.664C43.7299 10.4343 43.6596 10.2093 43.5893 9.98901C43.5377 9.8437 43.4909 9.6937 43.4346 9.54839C43.3502 9.31401 43.2471 9.08901 43.144 8.8687C43.0877 8.74214 43.0315 8.61089 42.9705 8.48901C42.844 8.24058 42.7034 8.00151 42.558 7.76714C42.5018 7.67808 42.4549 7.58901 42.3987 7.49995C41.9768 6.85776 41.4846 6.27651 40.9362 5.76558C40.8612 5.69526 40.7768 5.62964 40.6971 5.56401C40.4909 5.39058 40.2893 5.21714 40.0737 5.06245L39.7409 4.84214C39.5393 4.71089 39.3377 4.58433 39.1221 4.47183C38.9909 4.40151 38.8643 4.34058 38.7284 4.27964C38.5221 4.1812 38.3065 4.09214 38.0862 4.00776C37.9455 3.9562 37.8002 3.90464 37.6549 3.86245C37.4299 3.8062 37.2002 3.74995 36.9705 3.69839C36.8205 3.66558 36.6705 3.63276 36.5159 3.60933C36.2721 3.57183 36.0284 3.54839 35.7752 3.53433C35.6252 3.52495 35.4752 3.5062 35.3205 3.5062C35.269 3.5062 35.2221 3.49683 35.1705 3.49683C34.9455 3.49683 34.7159 3.52495 34.4862 3.53901C34.3455 3.55308 34.2049 3.55308 34.0643 3.56714C33.6377 3.6187 33.2018 3.69839 32.7565 3.8062C32.494 3.87651 32.2362 3.97495 31.9924 4.08276C31.9315 4.11089 31.8752 4.14839 31.819 4.17651C31.6315 4.27495 31.4487 4.38276 31.2705 4.49995C31.2237 4.53276 31.1768 4.57026 31.1299 4.60308C30.9471 4.7437 30.769 4.8937 30.6049 5.05776C30.5815 5.0812 30.5534 5.10464 30.5299 5.13276C30.3471 5.32495 30.1784 5.52651 30.0237 5.74214L30.0143 5.75151C30.0143 5.75151 30.0143 5.7562 30.0096 5.76089C29.9065 5.91089 29.8127 6.06558 29.7284 6.22495C29.7002 6.26245 29.6815 6.29526 29.6627 6.32808Z" fill="#F79329"/>
<path d="M12.8717 29.3251C11.5639 29.3157 10.5092 28.0923 10.5186 26.5829C10.528 25.0829 11.5921 23.8689 12.8952 23.8735C14.1983 23.8782 15.253 25.111 15.2436 26.6157C15.2389 28.1251 14.1702 29.3298 12.8717 29.3251ZM26.8967 38.2173C26.7842 38.4985 26.503 38.6626 26.2967 38.7845L26.203 38.8407C25.1999 39.4454 23.6858 39.361 22.6499 38.8735L22.5421 38.822C22.3967 38.7517 22.3358 38.7235 22.2421 38.7235C22.0967 38.7376 21.9608 38.7939 21.8389 38.8501C21.7405 38.8923 21.6421 38.9298 21.5577 38.9579C20.5499 39.2767 19.4483 39.4876 18.4311 39.1032C18.1499 38.9954 17.7702 38.7798 17.5592 38.4845C17.4092 38.2782 17.353 37.997 17.4139 37.7673C17.4655 37.5704 17.5967 37.411 17.7796 37.3173C18.1452 37.1439 18.5483 37.2985 18.8061 37.4345C19.453 37.7814 20.5686 37.8048 21.1077 37.2329C21.2905 37.036 21.3796 36.7501 21.3608 36.3845V36.2907C20.8171 36.2673 20.2967 36.1782 19.7811 35.9907C18.2014 35.4235 17.7608 33.9798 18.3936 32.6298C18.4874 32.4282 18.5999 32.2454 18.7264 32.0767C19.4014 31.2001 20.503 30.8017 21.7733 30.7407C23.2405 30.6704 25.1624 31.2048 25.9311 32.4751C26.428 33.3048 26.203 34.5798 25.5655 35.2923C24.9796 35.9579 23.9249 36.1454 22.9592 36.2251C22.9546 36.5673 22.9499 36.9329 23.0858 37.1673L23.3014 37.3407C23.9202 37.7626 24.8905 37.847 25.5608 37.4673L25.678 37.4017C25.7811 37.3407 25.8796 37.2845 25.9967 37.2423C26.3108 37.1251 26.6577 37.2189 26.8358 37.486C26.9717 37.697 26.9952 37.9735 26.8967 38.2173ZM31.4811 29.3251C30.1827 29.3298 29.1186 28.1204 29.1139 26.6157C29.1046 25.111 30.1592 23.8829 31.4624 23.8735C32.7608 23.8689 33.8296 25.0829 33.8389 26.5829C33.8483 28.0923 32.7889 29.3157 31.4811 29.3251Z" fill="#2F2F2F"/>
<path d="M34.772 41.0437C32.8688 42.6516 30.0235 44.6625 23.897 44.6625C18.2626 44.6625 14.9204 42.0609 14.9204 42.0609C14.9204 42.0609 18.7454 43.2844 22.3173 43.2844C24.3985 43.2844 26.1329 43.1203 27.9001 42.6328C30.6282 41.8875 32.7001 40.425 33.6798 39.7266C35.1095 38.7094 38.0345 36.2531 39.797 30.4453C39.797 30.45 39.5392 37.0172 34.772 41.0437Z" fill="#006CA2"/>
<path d="M24.3143 48.4078C25.5983 48.4078 26.6393 47.4256 26.6393 46.214C26.6393 45.0024 25.5983 44.0203 24.3143 44.0203C23.0302 44.0203 21.9893 45.0024 21.9893 46.214C21.9893 47.4256 23.0302 48.4078 24.3143 48.4078Z" fill="#78A3AD"/>
<path d="M24.2811 45.4595C24.5425 45.4595 24.7545 45.2601 24.7545 45.0142C24.7545 44.7682 24.5425 44.5688 24.2811 44.5688C24.0196 44.5688 23.8076 44.7682 23.8076 45.0142C23.8076 45.2601 24.0196 45.4595 24.2811 45.4595Z" fill="#2F2F2F"/>
</svg>
