<svg width="30" height="29" viewBox="0 0 30 29" fill="none" xmlns="http://www.w3.org/2000/svg">
<path d="M11.4099 6.94848C11.5988 6.94848 11.7067 6.81061 11.7471 6.63139C12.1922 4.3428 12.1652 4.28765 14.4984 3.81891C14.7008 3.77755 14.8221 3.66725 14.8221 3.47424C14.8221 3.28123 14.7008 3.17093 14.5119 3.12957C12.1517 2.63325 12.1652 2.57811 11.7471 0.303307C11.7201 0.12408 11.5988 0 11.4099 0C11.2211 0 11.1132 0.12408 11.0863 0.303307C10.6277 2.60568 10.6682 2.6884 8.32144 3.12957C8.13262 3.15715 8.01124 3.28123 8.01124 3.47424C8.01124 3.65347 8.13262 3.77755 8.32144 3.81891C10.6682 4.30144 10.6547 4.35659 11.0863 6.63139C11.1132 6.81061 11.2211 6.94848 11.4099 6.94848ZM22.9682 11.8565C23.184 11.8565 23.3189 11.6911 23.3594 11.4843C23.8449 8.80968 23.8179 8.67181 26.5693 8.18928C26.7985 8.14792 26.9469 8.01005 26.9469 7.78947C26.9469 7.56888 26.7985 7.43101 26.5827 7.38965C23.8179 6.87955 23.7775 6.75547 23.3594 4.09464C23.3189 3.87405 23.184 3.7224 22.9682 3.7224C22.7525 3.7224 22.6041 3.87405 22.5771 4.09464C22.1051 6.78304 22.1186 6.94848 19.3403 7.38965C19.138 7.41723 18.9761 7.56888 18.9761 7.78947C18.9896 8.01005 19.1245 8.14792 19.3403 8.18928C22.1186 8.6856 22.1455 8.82347 22.5771 11.4843C22.6041 11.6911 22.7525 11.8565 22.9682 11.8565ZM3.97864 15.9925C4.19444 15.9925 4.34279 15.8409 4.36977 15.6203C4.80135 12.9457 4.84181 12.8078 7.59314 12.3253C7.80893 12.2839 7.95729 12.1461 7.95729 11.9255C7.95729 11.7049 7.80893 11.567 7.60663 11.5257C4.82832 11.0155 4.82832 10.8915 4.36977 8.23064C4.3293 8.01005 4.19444 7.8584 3.97864 7.8584C3.76285 7.8584 3.62798 8.01005 3.58752 8.23064C3.15594 10.919 3.12897 11.0569 0.364147 11.5257C0.148356 11.567 0 11.7049 0 11.9255C0 12.1461 0.148356 12.2839 0.35066 12.3253C3.12897 12.8216 3.12897 12.9733 3.58752 15.6341C3.62798 15.8409 3.76285 15.9925 3.97864 15.9925ZM27.0683 27.8215C27.7291 28.5108 28.862 28.497 29.5094 27.8215C30.1703 27.1184 30.1568 26.0154 29.5094 25.3261L16.6968 12.1598C16.036 11.4843 14.9031 11.4843 14.2557 12.1598C13.5948 12.863 13.6083 13.9797 14.2557 14.6552L27.0683 27.8215ZM19.4616 18.2673L15.4021 14.1175C15.1323 13.828 15.0379 13.4971 15.3077 13.2214C15.5504 12.9733 15.8876 13.0422 16.1843 13.3317L20.2304 17.4815L19.4616 18.2673ZM10.4793 28.1662C10.7626 28.1662 10.9649 27.9731 11.0053 27.6561C11.4369 23.9337 11.6122 23.8234 15.3212 23.2305C15.6583 23.1754 15.8606 22.9962 15.8606 22.6929C15.8606 22.4033 15.6583 22.2103 15.3886 22.1552C11.6257 21.4107 11.4369 21.4383 11.0053 17.7297C10.9649 17.4126 10.7626 17.2195 10.4793 17.2195C10.1961 17.2195 9.99381 17.4126 9.95335 17.7159C9.4948 21.4934 9.35993 21.6313 5.58359 22.1552C5.31385 22.1827 5.09806 22.4033 5.09806 22.6929C5.09806 22.9824 5.30036 23.1754 5.5701 23.2305C9.37342 23.975 9.48131 23.975 9.95335 27.6836C9.99381 27.9731 10.1961 28.1662 10.4793 28.1662Z" fill="#F7F7F7"/>
</svg>
