<svg width="18" height="16" viewBox="0 0 18 16" fill="none" xmlns="http://www.w3.org/2000/svg">
<path d="M7.75 8V1M0.75 8H16.75M16.15 15H1.35C1.19087 15 1.03826 14.9447 0.925736 14.8462C0.813214 14.7478 0.75 14.6142 0.75 14.475V1.525C0.75 1.38576 0.813214 1.25223 0.925736 1.15377C1.03826 1.05531 1.19087 1 1.35 1H16.15C16.3091 1 16.4617 1.05531 16.5743 1.15377C16.6868 1.25223 16.75 1.38576 16.75 1.525V14.475C16.75 14.6142 16.6868 14.7478 16.5743 14.8462C16.4617 14.9447 16.3091 15 16.15 15Z" stroke="white" stroke-width="1.5"/>
</svg>
