<svg width="60" height="60" viewBox="0 0 60 60" fill="none" xmlns="http://www.w3.org/2000/svg">
<path d="M59.1847 29.2223C58.6163 28.6455 57.5304 28.4276 56.8944 28.1557C54.2239 27.0139 53.373 25.6341 51.0066 23.9455C48.448 22.1207 46.2907 19.7859 43.4554 18.3523C40.6908 16.9542 37.5979 16.7126 34.6564 17.6947C33.2258 18.1725 31.8834 18.8845 30.6266 19.7153C30.2355 19.9738 29.7404 20.0071 29.3238 19.7918C28.1185 19.1689 25.8024 17.8404 25.3661 17.6947C18.4479 15.3846 14.1194 20.3055 9.01591 23.9455C6.64942 25.6341 5.79864 27.0139 3.12817 28.1557C2.44977 28.4457 1.37177 28.6329 0.831531 29.2057C0.410359 29.6542 0.425359 30.0439 0.425359 30.5086C0.425359 33.6024 8.50297 47.1948 29.9627 47.1948C51.4224 47.1948 59.5364 33.566 59.5364 30.5714C59.5364 30.3908 59.5766 29.6199 59.1847 29.2223Z" fill="#FF473E"/>
<path d="M1.90739 30.6786C2.53375 30.7011 3.15051 30.725 3.78508 30.6808L5.66536 30.618C6.28821 30.6099 6.90321 30.556 7.542 30.516L9.43563 30.4096C10.0652 30.3719 10.6795 30.3109 11.3001 30.263C11.9187 30.2106 12.5369 30.1703 13.1539 30.1022C13.7699 30.0355 14.3893 29.9922 15.0003 29.9071C15.6134 29.8257 16.222 29.7593 16.8373 29.6627L18.706 29.4073C19.3368 29.3268 20.0058 29.2449 20.6807 29.2057L21.1929 29.1801L21.4493 29.1675L21.5775 29.1613L21.6416 29.1583L21.6577 29.1576L21.7646 29.1599L21.7942 29.161L22.7414 29.1943C22.8813 29.1907 23.0997 29.2263 23.2967 29.2537C23.4967 29.2817 23.6968 29.3134 23.8954 29.3484C24.3018 29.4147 24.5952 29.5238 24.9498 29.6123C25.279 29.707 25.5558 29.8057 25.8615 29.9024L26.6695 30.1492L27.4496 30.3256C27.7144 30.372 27.9882 30.3954 28.2559 30.4337C28.5184 30.4807 28.8077 30.481 29.0916 30.4902L29.5176 30.5048L29.7304 30.5125L29.8368 30.5165L29.89 30.5185L29.9034 30.5189L29.91 30.5192C29.7579 30.5348 30.26 30.4846 29.5707 30.5542L29.5995 30.5491L29.7527 30.5214L29.9458 30.514C30.395 30.4968 31.2348 30.5004 31.6979 30.4307L32.4509 30.3304L33.2316 30.1536L34.0369 29.9104C34.3413 29.8135 34.6238 29.715 34.9458 29.6195C35.6058 29.4207 36.3435 29.2612 37.088 29.1977L38.189 29.1564L38.2577 29.1543L38.3689 29.1579L38.4872 29.164L38.724 29.1762L39.1975 29.2006C39.8122 29.2328 40.5873 29.323 41.1993 29.4017L43.0709 29.6561C43.6868 29.7529 44.2962 29.8203 44.9099 29.9016C45.5214 29.988 46.1416 30.0307 46.7582 30.0978C47.3744 30.1668 47.9971 30.2061 48.6197 30.2587C49.8627 30.3747 51.1164 30.4444 52.3734 30.5124L53.316 30.5759L53.5519 30.5917L53.6109 30.5957C53.586 30.5979 53.6381 30.5973 53.6479 30.5983L53.7667 30.6018L54.2423 30.6157L56.1448 30.6783C56.7878 30.7225 57.3973 30.6994 58.0203 30.6769C58.6489 30.6763 58.6974 30.8785 58.0747 30.9798C57.4442 31.0921 56.7994 31.1983 56.1741 31.2388L54.2832 31.3991L53.8103 31.4375L53.6921 31.4471L53.551 31.4543L53.3124 31.4646L52.3574 31.5058C51.0837 31.5549 49.8074 31.5889 48.5243 31.5828C47.883 31.5911 47.242 31.5829 46.5991 31.553C45.957 31.5239 45.3116 31.5189 44.6699 31.4697C43.389 31.4018 42.0857 31.278 40.8653 31.1557C40.2254 31.102 39.7444 31.0558 39.096 31.0429L38.6215 31.0363L38.3842 31.033L38.2656 31.0314L38.236 31.0311L38.2211 31.0308L38.2137 31.0307C38.1652 31.03 38.2714 31.0315 38.2582 31.0316L38.2086 31.0359L37.4165 31.0966C37.1549 31.1196 36.9181 31.1913 36.6656 31.2255C36.4163 31.2681 36.1607 31.3649 35.9077 31.4291C35.6419 31.5113 35.3505 31.6165 35.0732 31.709L34.1205 32.01L33.0872 32.2584C32.7244 32.3218 32.346 32.3686 31.9744 32.4195C31.5756 32.4825 31.2902 32.4793 30.9688 32.4978L30.4953 32.5202L30.2586 32.5313L30.1402 32.5369L30.0048 32.54L29.9459 32.5349L30.2918 32.4999L30.2629 32.5047C29.5688 32.5749 30.0658 32.5239 29.9088 32.5395L29.9007 32.5391L29.8844 32.5384L29.8192 32.5356L29.689 32.53L29.4286 32.5184L28.9081 32.4943C28.5611 32.4775 28.2167 32.4695 27.8608 32.408C27.5085 32.3557 27.1534 32.3159 26.8053 32.2492L25.7736 32.0009L24.828 31.6993C24.552 31.608 24.2574 31.4996 23.9968 31.422C23.752 31.3606 23.4711 31.2545 23.2574 31.2246C23.1482 31.2066 23.0395 31.185 22.9316 31.16C22.8201 31.1369 22.7335 31.1024 22.5551 31.0977L21.6114 31.0291L20.8312 31.04C20.2451 31.0516 19.6586 31.1003 19.0396 31.1557C17.8198 31.2788 16.5179 31.3986 15.2386 31.468C14.5976 31.5164 13.9532 31.5223 13.312 31.5513C12.6713 31.5822 12.0271 31.5875 11.3833 31.5801C10.0898 31.5865 8.82625 31.5528 7.56344 31.503C6.9386 31.4736 6.28973 31.4586 5.64977 31.3971L3.7409 31.2368C3.10844 31.1964 2.47282 31.0902 1.84715 30.9784C1.23532 30.8805 1.26883 30.6747 1.90739 30.6786Z" fill="white"/>
</svg>
