<svg width="60" height="60" viewBox="0 0 60 60" fill="none" xmlns="http://www.w3.org/2000/svg">
<path d="M30 52.5C45 52.5 47.5 39.4155 47.5 35C47.5 31.0474 47.5 25.214 47.5 17.5H12.5C12.5 21.8029 12.5 27.6363 12.5 35C12.5 39.3132 15 52.5 30 52.5Z" fill="#2F88FF" stroke="black" stroke-width="2" stroke-linejoin="round"/>
<path d="M5 10L12.5 17.5" stroke="black" stroke-width="2" stroke-linecap="round" stroke-linejoin="round"/>
<path d="M55 10L47.5 17.5" stroke="black" stroke-width="2" stroke-linecap="round" stroke-linejoin="round"/>
<path d="M5 33.75H12.5" stroke="black" stroke-width="2" stroke-linecap="round" stroke-linejoin="round"/>
<path d="M55 33.75H47.5" stroke="black" stroke-width="2" stroke-linecap="round" stroke-linejoin="round"/>
<path d="M8.75 55L16.25 47.5" stroke="black" stroke-width="2" stroke-linecap="round" stroke-linejoin="round"/>
<path d="M51.25 55L43.75 47.5" stroke="black" stroke-width="2" stroke-linecap="round" stroke-linejoin="round"/>
<path d="M30 52.5V17.5" stroke="white" stroke-width="2" stroke-linecap="round" stroke-linejoin="round"/>
<path d="M18.6504 48.8008C21.2529 50.9787 24.9054 52.4997 29.9998 52.4997C35.1389 52.4997 38.8108 50.964 41.4175 48.7671" stroke="black" stroke-width="2" stroke-linecap="round" stroke-linejoin="round"/>
<path d="M40 15.4166C40 9.6637 35.5229 5 30 5C24.4771 5 20 9.6637 20 15.4166V17.5H40V15.4166Z" fill="#2F88FF" stroke="black" stroke-width="2" stroke-linejoin="round"/>
</svg>
