<svg width="40" height="40" viewBox="0 0 40 40" fill="none" xmlns="http://www.w3.org/2000/svg">
<path d="M5.26354 20.0206C5.01515 20.4049 4.94234 20.7434 5.04513 21.0362C5.15648 21.329 5.44342 21.4754 5.90595 21.4754H7.58906C7.76037 23.1223 8.20149 24.6641 8.91242 26.1006C9.62335 27.537 10.5399 28.7951 11.6619 29.8748C12.784 30.9544 14.056 31.8008 15.4778 32.4138C16.8997 33.0268 18.4072 33.3334 20.0004 33.3334C21.8248 33.3334 23.5336 32.9308 25.1268 32.1256C26.72 31.3204 28.0819 30.2408 29.2125 28.8866C29.4695 28.5938 29.5894 28.2782 29.5722 27.9396C29.5637 27.6011 29.4395 27.3266 29.1996 27.1162C28.9512 26.8966 28.6772 26.8051 28.3774 26.8417C28.0861 26.8691 27.8163 27.0201 27.5679 27.2946C26.6429 28.4017 25.5251 29.2801 24.2146 29.9297C22.9126 30.5793 21.5079 30.9041 20.0004 30.9041C18.6984 30.9041 17.4736 30.6617 16.3258 30.1767C15.178 29.7009 14.1502 29.033 13.2422 28.1729C12.3429 27.3129 11.602 26.3156 11.0195 25.181C10.4456 24.0465 10.0773 22.8113 9.91457 21.4754H11.7262C12.1801 21.4754 12.4628 21.329 12.5741 21.0362C12.6855 20.7434 12.617 20.4095 12.3686 20.0343L9.54198 15.7797C9.33641 15.4595 9.09229 15.2994 8.80963 15.2994C8.53554 15.2994 8.29142 15.4595 8.07729 15.7797L5.26354 20.0206ZM10.8139 11.0997C10.5484 11.3925 10.4199 11.7081 10.4285 12.0467C10.4456 12.3852 10.5741 12.6597 10.8139 12.8702C11.0538 13.0806 11.3236 13.1721 11.6234 13.1446C11.9232 13.1172 12.1973 12.9662 12.4457 12.6917C13.3707 11.5938 14.4842 10.7246 15.7862 10.0841C17.0881 9.43446 18.4929 9.10964 20.0004 9.10964C21.3023 9.10964 22.5272 9.34754 23.6749 9.82332C24.8227 10.2991 25.8463 10.967 26.7456 11.8271C27.6536 12.678 28.3945 13.6753 28.9684 14.819C29.5508 15.9627 29.9234 17.1979 30.0862 18.5246H28.2746C27.8292 18.5246 27.5465 18.671 27.4266 18.9638C27.3067 19.2566 27.3752 19.5906 27.6322 19.9657L30.4459 24.2203C30.6515 24.5314 30.8956 24.6915 31.1783 24.7007C31.4609 24.7007 31.705 24.5405 31.9106 24.2203L34.7372 19.9794C34.9942 19.5951 35.0627 19.2566 34.9428 18.9638C34.8314 18.671 34.5488 18.5246 34.0948 18.5246H32.3988C32.2275 16.8777 31.7864 15.336 31.0755 13.8995C30.3731 12.463 29.4609 11.2049 28.3388 10.1253C27.2167 9.0456 25.9448 8.19925 24.5229 7.58623C23.1011 6.9732 21.5935 6.66669 20.0004 6.66669C18.1845 6.66669 16.48 7.06927 14.8868 7.87444C13.3022 8.67046 11.9446 9.74555 10.8139 11.0997Z" fill="#F7F7F7"/>
</svg>
