<svg width="20" height="20" viewBox="0 0 20 20" fill="none" xmlns="http://www.w3.org/2000/svg">
<circle cx="10" cy="10" r="10" fill="white"/>
<path d="M13.3871 6.25H10.8032C10.6028 6.25 10.4403 6.41396 10.4403 6.61621C10.4403 6.81846 10.6028 6.98242 10.8032 6.98242H12.4435L6.97581 12.5V10.7764C6.97581 10.5741 6.81333 10.4102 6.6129 10.4102C6.41248 10.4102 6.25 10.5741 6.25 10.7764V13.3838C6.25261 13.5849 6.41357 13.7474 6.6129 13.75H9.19677C9.3972 13.75 9.55968 13.586 9.55968 13.3838C9.55968 13.1815 9.3972 13.0176 9.19677 13.0176H7.48871L13.0242 7.43164V9.22363C13.0242 9.42589 13.1867 9.58984 13.3871 9.58984C13.5875 9.58984 13.75 9.42589 13.75 9.22363V6.61621C13.7474 6.41506 13.5864 6.25263 13.3871 6.25Z" fill="black"/>
</svg>
