<svg width="60" height="60" viewBox="0 0 60 60" fill="none" xmlns="http://www.w3.org/2000/svg">
<g clip-path="url(#clip0_818_3104)">
<path d="M25.2759 56.9401C25.2759 59.8744 26.9249 59.7516 28.9565 59.7516C30.9881 59.7516 32.6334 59.8744 32.6334 56.9401C32.6334 54.0094 30.9881 31.7888 28.9565 31.7888C26.9249 31.7888 25.2759 54.0094 25.2759 56.9401Z" fill="#DDB185"/>
<path d="M50.0342 47.7853C43.4623 36.4069 36.8998 25.0331 30.3279 13.6538C29.7308 12.6206 28.1736 12.6206 27.5773 13.6538C21.0148 25.0331 14.4429 36.4069 7.87107 47.7853C7.26639 48.8297 8.03139 50.1806 9.24639 50.1806H48.6589C49.8711 50.1806 50.6398 48.8297 50.0342 47.7853Z" fill="#0B7D70"/>
<path d="M50.0342 41.0672C43.4623 31.2347 36.8998 21.405 30.3279 11.5725C29.7308 10.6809 28.1736 10.6809 27.5773 11.5725C21.0148 21.405 14.4429 31.2337 7.87107 41.0672C7.26639 41.97 8.03139 43.1362 9.24639 43.1362H48.6589C49.8711 43.1362 50.6398 41.97 50.0342 41.0672Z" fill="#2BB573"/>
<path d="M45.1874 30.7059C40.0649 21.6309 34.944 12.5559 29.8246 3.4809C29.3577 2.65871 28.1446 2.65871 27.6805 3.4809C22.5618 12.5559 17.4365 21.63 12.3177 30.7059C11.8471 31.5403 12.4434 32.6193 13.3893 32.6193H44.1121C45.059 32.6193 45.6562 31.5403 45.1874 30.7059Z" fill="#0B7D70"/>
<path d="M45.994 23.3831L30.0687 0.519365C29.5849 -0.173447 28.3286 -0.173447 27.844 0.519365C22.534 8.13999 17.2255 15.7612 11.9186 23.3831C11.4274 24.0834 12.0508 24.99 13.0296 24.99H44.8821C45.8608 24.99 46.4824 24.0834 45.994 23.3831Z" fill="#04A69C"/>
</g>
<defs>
<clipPath id="clip0_818_3104">
<rect width="60" height="60" fill="white"/>
</clipPath>
</defs>
</svg>
