<svg width="17" height="16" viewBox="0 0 17 16" fill="none" xmlns="http://www.w3.org/2000/svg">
<path d="M5.39286 6.85714C5.69596 6.85714 5.98665 6.73674 6.20098 6.52241C6.41531 6.30808 6.53571 6.01739 6.53571 5.71429C6.53571 5.41118 6.41531 5.12049 6.20098 4.90616C5.98665 4.69184 5.69596 4.57143 5.39286 4.57143C5.08975 4.57143 4.79906 4.69184 4.58474 4.90616C4.37041 5.12049 4.25 5.41118 4.25 5.71429C4.25 6.01739 4.37041 6.30808 4.58474 6.52241C4.79906 6.73674 5.08975 6.85714 5.39286 6.85714ZM12.25 5.71429C12.25 6.01739 12.1296 6.30808 11.9153 6.52241C11.7009 6.73674 11.4102 6.85714 11.1071 6.85714C10.804 6.85714 10.5133 6.73674 10.299 6.52241C10.0847 6.30808 9.96429 6.01739 9.96429 5.71429C9.96429 5.41118 10.0847 5.12049 10.299 4.90616C10.5133 4.69184 10.804 4.57143 11.1071 4.57143C11.4102 4.57143 11.7009 4.69184 11.9153 4.90616C12.1296 5.12049 12.25 5.41118 12.25 5.71429ZM0.25 3.42857V12.5714C0.25 13.4807 0.611224 14.3528 1.25421 14.9958C1.89719 15.6388 2.76926 16 3.67857 16H9.826L9.91743 15.9977C9.97954 16.0029 10.0421 15.9979 10.1026 15.9829C10.6093 15.9214 11.0808 15.692 11.442 15.3314L15.5803 11.192C15.9413 10.8309 16.171 10.3594 16.2329 9.85257C16.2479 9.79208 16.2529 9.72954 16.2477 9.66743L16.25 9.576V3.42857C16.25 2.51926 15.8888 1.64719 15.2458 1.00421C14.6028 0.361224 13.7307 0 12.8214 0H3.67857C2.76926 0 1.89719 0.361224 1.25421 1.00421C0.611224 1.64719 0.25 2.51926 0.25 3.42857ZM15.1071 3.42857V9.14286H12.5357C11.1529 9.14286 9.98029 10.0343 9.55971 11.2743C9.13188 11.3791 8.69277 11.4309 8.25229 11.4286C7.20657 11.4286 6.43514 11.168 5.93457 10.9177C5.73869 10.8225 5.55232 10.7088 5.378 10.5783C5.32555 10.5386 5.27483 10.4966 5.226 10.4526L5.22257 10.4503C5.11497 10.3434 4.96933 10.2837 4.81769 10.2843C4.66606 10.2848 4.52084 10.3455 4.414 10.4531C4.30716 10.5607 4.24743 10.7064 4.24797 10.858C4.2485 11.0097 4.30926 11.1549 4.41686 11.2617L4.41914 11.2629L4.42143 11.2651L4.42714 11.2709L4.44429 11.2869L4.49914 11.336C4.54486 11.3764 4.60962 11.4286 4.69343 11.4926C4.86029 11.6183 5.10371 11.7794 5.42371 11.9394C6.06486 12.2594 7.01 12.5714 8.25229 12.5714C8.66371 12.5699 9.04391 12.5383 9.39286 12.4766V14.8571H3.67857C3.07236 14.8571 2.49098 14.6163 2.06233 14.1877C1.63367 13.759 1.39286 13.1776 1.39286 12.5714V3.42857C1.39286 2.82236 1.63367 2.24098 2.06233 1.81233C2.49098 1.38367 3.07236 1.14286 3.67857 1.14286H12.8214C13.4276 1.14286 14.009 1.38367 14.4377 1.81233C14.8663 2.24098 15.1071 2.82236 15.1071 3.42857ZM10.634 14.5223C10.603 14.5535 10.5701 14.5829 10.5357 14.6103V12.2857C10.5357 11.1817 11.4317 10.2857 12.5357 10.2857H14.8603C14.8329 10.32 14.8035 10.3528 14.7723 10.384L10.634 14.5223Z" fill="white"/>
</svg>
