<svg width="60" height="60" viewBox="0 0 60 60" fill="none" xmlns="http://www.w3.org/2000/svg">
<path d="M58.814 40.3875L54.9374 39.689C54.9843 38.8265 54.9796 37.9546 54.9374 37.0828L58.8749 36.4968C59.0049 36.4779 59.1298 36.4335 59.2426 36.3662C59.3554 36.299 59.4538 36.2101 59.5322 36.1047C59.6105 35.9993 59.6673 35.8795 59.6994 35.7522C59.7314 35.6248 59.7379 35.4924 59.7187 35.3625C59.639 34.8187 59.1281 34.4437 58.5843 34.5187L54.7499 35.0906C54.3281 32.2875 53.2499 29.4937 51.6187 26.9765C52.1109 22.2796 53.0531 9.5484 49.2327 6.98434C46.1859 4.94059 38.939 12.525 36.6046 15.2484C36.0656 15.8765 35.5734 16.4437 35.1234 16.9593C33.4921 16.7109 31.8327 16.575 30.178 16.575C28.5234 16.5703 26.8687 16.7109 25.2374 16.9593C24.7874 16.4437 24.2952 15.8765 23.7562 15.2484C21.4218 12.525 14.1749 4.94059 11.1327 6.98434C7.31243 9.5484 8.2593 22.2796 8.7468 26.9765C7.12024 29.489 6.03274 32.2875 5.61555 35.0906L1.78118 34.5187C1.23743 34.4437 0.726488 34.814 0.642113 35.3625C0.557738 35.9062 0.937425 36.4171 1.48118 36.4968L5.41868 37.0828C5.37649 37.9546 5.3718 38.8265 5.41868 39.689L1.5468 40.3875C1.30011 40.4307 1.07865 40.565 0.92631 40.7638C0.773967 40.9626 0.701856 41.2113 0.724265 41.4608C0.746674 41.7102 0.861967 41.9421 1.0473 42.1106C1.23263 42.279 1.47448 42.3717 1.72493 42.3703C1.78118 42.3703 1.84211 42.3656 1.90305 42.3562L5.62493 41.6859C5.77961 42.6703 6.00461 43.6406 6.32805 44.5828L3.29055 45.5437C3.03838 45.6251 2.82851 45.8027 2.70651 46.0379C2.58451 46.2731 2.56025 46.547 2.63899 46.8C2.71931 47.0529 2.89673 47.2635 3.13228 47.3857C3.36783 47.5079 3.64224 47.5316 3.89524 47.4515L7.10617 46.4343C8.0343 48.2578 9.39367 49.9359 11.3155 51.3703C14.1515 53.4843 17.6765 54.9187 21.314 55.6968C22.6921 55.9921 26.264 56.6812 30.0093 56.6812C33.7546 56.6812 37.6734 55.9921 39.0562 55.6968C42.689 54.9187 46.2187 53.4843 49.0546 51.3703C50.9765 49.9359 52.3359 48.2578 53.264 46.4343L56.4702 47.4515C56.7232 47.5316 56.9976 47.5079 57.2332 47.3857C57.4687 47.2635 57.6462 47.0529 57.7265 46.8C57.8952 46.275 57.6046 45.7125 57.0796 45.5437L54.0421 44.5781C54.3656 43.6406 54.5952 42.6703 54.7452 41.6812L58.4718 42.3515C58.7326 42.3967 59.0008 42.3375 59.2183 42.1867C59.4358 42.0358 59.5853 41.8054 59.6343 41.5453C59.6741 41.2836 59.6109 41.0167 59.4579 40.8008C59.3049 40.5848 59.074 40.4367 58.814 40.3875Z" fill="#F79329"/>
<path d="M33.2579 48.3704C33.3563 48.586 33.1782 48.9329 33.1267 49.1297C33.061 49.3782 33.0001 49.6219 32.9251 49.861C32.5689 51.0422 31.9595 52.1485 30.6517 52.4063C29.4423 52.6454 28.2798 51.8204 27.8251 50.7282C27.6564 50.3297 27.5251 49.9172 27.3845 49.5094C27.3095 49.2844 27.2345 49.0594 27.1642 48.8391C27.1126 48.6797 26.9767 48.4266 26.9954 48.2626C27.661 48.2204 28.4345 47.9204 29.0064 47.5829C29.1939 47.4704 29.4048 47.4094 29.5782 47.2735C29.7329 47.1516 29.8314 46.9782 30.0282 46.9172C30.2251 47.1282 30.5579 47.2454 30.8017 47.4094C31.097 47.6063 31.397 47.7797 31.7157 47.9297C32.011 48.0704 32.3626 48.0704 32.6673 48.1501C32.8267 48.1922 33.0939 48.1688 33.211 48.3047C33.2345 48.3235 33.2485 48.3422 33.2579 48.3704Z" fill="#ED6C30"/>
<path d="M21.9939 38.0015C21.9939 40.1531 20.4424 41.8921 18.5346 41.8921C16.6268 41.8921 15.0752 40.1484 15.0752 38.0015C15.0752 35.8453 16.6268 34.1062 18.5346 34.1062C20.4424 34.1015 21.9939 35.8453 21.9939 38.0015ZM38.0908 38.0015C38.0908 40.1531 39.6377 41.8921 41.5502 41.8921C43.458 41.8921 45.0096 40.1484 45.0096 38.0015C45.0096 35.8453 43.458 34.1062 41.5502 34.1062C39.6424 34.1015 38.0908 35.8453 38.0908 38.0015ZM30.2252 47.4984C29.8643 47.4984 29.5736 47.2078 29.5736 46.8468V43.0265C29.5736 42.6656 29.8643 42.375 30.2252 42.375C30.5861 42.375 30.8768 42.6656 30.8768 43.0265V46.8468C30.8768 47.2078 30.5861 47.4984 30.2252 47.4984Z" fill="#2F2F2F"/>
<path d="M26.9484 49.0313C26.7469 49.0313 26.5312 49.0219 26.3109 49.0031C23.6578 48.7688 22.4906 46.7109 22.2422 45.6516C22.1945 45.4446 22.2308 45.2271 22.3433 45.0469C22.4558 44.8668 22.6353 44.7386 22.8422 44.6906C22.9444 44.6663 23.0504 44.6624 23.1541 44.6792C23.2578 44.696 23.3572 44.7331 23.4465 44.7884C23.5358 44.8437 23.6133 44.9162 23.6745 45.0016C23.7357 45.087 23.7794 45.1836 23.8031 45.2859C23.8266 45.3844 24.3234 47.2172 26.4516 47.4094C28.6781 47.6109 29.5406 46.4438 29.5781 46.3922C29.8359 46.0359 30.3281 45.9469 30.6891 46.1953C31.05 46.4438 31.1437 46.9313 30.9 47.2969C30.8484 47.3719 29.6953 49.0313 26.9484 49.0313Z" fill="#2F2F2F"/>
<path d="M33.5252 49.0313C30.7783 49.0313 29.6252 47.3719 29.5736 47.2969C29.3252 46.9313 29.4236 46.4297 29.7892 46.1813C30.1595 45.9329 30.6564 46.0313 30.9049 46.3969C30.933 46.4344 31.8095 47.6016 34.022 47.4047C36.1924 47.2125 36.6658 45.3047 36.6705 45.286C36.7736 44.8547 37.2049 44.5875 37.6314 44.686C38.0627 44.7891 38.3299 45.2157 38.2314 45.6469C37.983 46.7016 36.8111 48.7641 34.1627 48.9985C33.9377 49.0219 33.7267 49.0313 33.5252 49.0313ZM27.7595 42.9985C27.797 43.4907 28.1299 44.0063 28.6455 44.3204C29.058 44.5782 29.6439 44.7047 30.2205 44.7047C30.7924 44.7047 31.3783 44.5782 31.7908 44.3204C32.3064 44.0016 32.6392 43.4907 32.6767 42.9985C32.7142 42.5297 32.6064 42.0516 32.0955 41.7235C31.8142 41.5407 31.4627 41.4188 31.1017 41.3532C30.9658 41.3297 30.6095 41.2688 30.2345 41.2688C29.8642 41.2688 29.4752 41.325 29.3345 41.3532C28.9736 41.4188 28.622 41.5407 28.3408 41.7235C27.8345 42.0563 27.722 42.5297 27.7595 42.9985Z" fill="#2F2F2F"/>
<path d="M30.2019 45.403C29.48 45.403 28.7769 45.2249 28.2753 44.9155C27.5862 44.489 27.1175 43.7765 27.0612 43.0546C26.9816 42.0046 27.5112 41.4374 27.9612 41.1421C28.3081 40.9218 28.7394 40.7577 29.2081 40.6733C29.3956 40.6358 29.8222 40.5796 30.23 40.5796C30.6706 40.5796 31.0737 40.6452 31.2237 40.6733C31.6925 40.7577 32.1237 40.9218 32.4659 41.1421C32.9206 41.4374 33.4503 42.0093 33.3659 43.0593C33.3097 43.7765 32.8456 44.489 32.1519 44.9202C31.6503 45.2296 30.9472 45.4077 30.2253 45.4077H30.2019V45.403ZM30.2347 41.9671C29.9159 41.9671 29.5737 42.0187 29.4659 42.0374C29.1753 42.0937 28.9081 42.1874 28.7206 42.3093C28.5378 42.4265 28.43 42.5765 28.4581 42.9421C28.4816 43.2233 28.6972 43.528 29.0159 43.7249C29.3019 43.903 29.7472 44.0062 30.2112 44.0062V44.7046L30.2206 44.0062C30.7034 44.0062 31.1487 43.8983 31.43 43.7249C31.7441 43.5327 31.9691 43.2187 31.9878 42.9421C32.0206 42.5765 31.9081 42.4265 31.7253 42.3093C31.5378 42.1874 31.2706 42.0937 30.9847 42.0374C30.905 42.028 30.5722 41.9671 30.2347 41.9671Z" fill="#2F2F2F"/>
<path d="M30.2249 53.2782C28.8983 53.2782 27.6233 52.411 27.0562 51.047C26.7937 50.4142 26.264 48.7548 26.2405 48.6845C26.0999 48.2485 26.3437 47.7798 26.7796 47.6391C27.2155 47.4985 27.6843 47.7423 27.8249 48.1782C28.0077 48.7501 28.4015 49.9548 28.589 50.4048C28.8796 51.1032 29.6483 51.7548 30.4874 51.5907C31.2562 51.4407 31.7624 50.8313 32.128 49.622C32.1749 49.4579 32.2733 49.0876 32.3671 48.7407C32.4374 48.4688 32.5077 48.2063 32.5452 48.0704C32.6718 47.6298 33.1218 47.372 33.5718 47.4985C34.0124 47.6251 34.2702 48.0845 34.1437 48.5251C34.1062 48.6563 34.0405 48.9048 33.9702 49.1673C33.8765 49.5282 33.7733 49.9173 33.7171 50.1001C33.5108 50.7751 32.8921 52.8095 30.8062 53.222C30.6187 53.2595 30.4218 53.2782 30.2249 53.2782Z" fill="#2F2F2F"/>
</svg>
