<svg width="60" height="60" viewBox="0 0 60 60" fill="none" xmlns="http://www.w3.org/2000/svg">
<path d="M23.6235 28.4584L11.2502 12.6567L5.04688 28.4584H23.6235Z" fill="#F4900C"/>
<path d="M29.8968 9.22339L18.9585 29.8717H40.8335L29.8968 9.22339Z" fill="#F4900C"/>
<path d="M36.3765 28.4584L48.7498 12.6567L54.9531 28.4584H36.3765Z" fill="#F4900C"/>
<path d="M47.7816 25.3168L39.8116 5.87178L30.0116 25.3184L30 25.3235L29.9883 25.3168L20.1883 5.87012L12.2183 25.3168C6.99497 18.0551 2.1333 13.4034 2.1333 13.4034C2.1333 13.4034 4.99997 34.5835 4.99997 55.0001H55C55 34.5835 57.8666 13.4034 57.8666 13.4034C57.8666 13.4034 53.005 18.0551 47.7816 25.3168Z" fill="#FFCC4D"/>
<path d="M29.9284 42.8134C33.3231 42.8134 36.0751 40.0614 36.0751 36.6667C36.0751 33.272 33.3231 30.52 29.9284 30.52C26.5337 30.52 23.7817 33.272 23.7817 36.6667C23.7817 40.0614 26.5337 42.8134 29.9284 42.8134Z" fill="#5C913B"/>
<path d="M44.105 40.6867C46.3251 40.6867 48.125 38.8869 48.125 36.6667C48.125 34.4465 46.3251 32.6467 44.105 32.6467C41.8848 32.6467 40.085 34.4465 40.085 36.6667C40.085 38.8869 41.8848 40.6867 44.105 40.6867Z" fill="#981CEB"/>
<path d="M54.7534 39.9767C56.5814 39.9767 58.0634 38.4948 58.0634 36.6667C58.0634 34.8386 56.5814 33.3567 54.7534 33.3567C52.9253 33.3567 51.4434 34.8386 51.4434 36.6667C51.4434 38.4948 52.9253 39.9767 54.7534 39.9767Z" fill="#DD2E44"/>
<path d="M15.75 40.6867C17.9702 40.6867 19.77 38.8869 19.77 36.6667C19.77 34.4465 17.9702 32.6467 15.75 32.6467C13.5298 32.6467 11.73 34.4465 11.73 36.6667C11.73 38.8869 13.5298 40.6867 15.75 40.6867Z" fill="#981CEB"/>
<path d="M5.1015 39.9767C6.92957 39.9767 8.4115 38.4948 8.4115 36.6667C8.4115 34.8386 6.92957 33.3567 5.1015 33.3567C3.27344 33.3567 1.7915 34.8386 1.7915 36.6667C1.7915 38.4948 3.27344 39.9767 5.1015 39.9767Z" fill="#DD2E44"/>
<path d="M55.0002 56.6668H5.00016C4.55814 56.6668 4.13421 56.4912 3.82165 56.1786C3.50909 55.8661 3.3335 55.4421 3.3335 55.0001C3.3335 54.5581 3.50909 54.1342 3.82165 53.8216C4.13421 53.509 4.55814 53.3334 5.00016 53.3334H55.0002C55.4422 53.3334 55.8661 53.509 56.1787 53.8216C56.4912 54.1342 56.6668 54.5581 56.6668 55.0001C56.6668 55.4421 56.4912 55.8661 56.1787 56.1786C55.8661 56.4912 55.4422 56.6668 55.0002 56.6668ZM55.0002 50.8568H5.00016C4.55814 50.8568 4.13421 50.6812 3.82165 50.3686C3.50909 50.0561 3.3335 49.6321 3.3335 49.1901C3.3335 48.7481 3.50909 48.3242 3.82165 48.0116C4.13421 47.699 4.55814 47.5234 5.00016 47.5234H55.0002C55.4422 47.5234 55.8661 47.699 56.1787 48.0116C56.4912 48.3242 56.6668 48.7481 56.6668 49.1901C56.6668 49.6321 56.4912 50.0561 56.1787 50.3686C55.8661 50.6812 55.4422 50.8568 55.0002 50.8568Z" fill="#FFAC33"/>
<path d="M2.41189 15.7483C3.707 15.7483 4.75689 14.6985 4.75689 13.4033C4.75689 12.1082 3.707 11.0583 2.41189 11.0583C1.11679 11.0583 0.0668945 12.1082 0.0668945 13.4033C0.0668945 14.6985 1.11679 15.7483 2.41189 15.7483Z" fill="#FFCC4D"/>
<path d="M11.2499 14.6433C12.3471 14.6433 13.2365 13.7538 13.2365 12.6566C13.2365 11.5594 12.3471 10.6699 11.2499 10.6699C10.1526 10.6699 9.26318 11.5594 9.26318 12.6566C9.26318 13.7538 10.1526 14.6433 11.2499 14.6433Z" fill="#F4900C"/>
<path d="M20.1882 8.8451C21.8303 8.8451 23.1615 7.5139 23.1615 5.87177C23.1615 4.22964 21.8303 2.89844 20.1882 2.89844C18.546 2.89844 17.2148 4.22964 17.2148 5.87177C17.2148 7.5139 18.546 8.8451 20.1882 8.8451Z" fill="#FFCC4D"/>
<path d="M57.5882 15.7483C58.8833 15.7483 59.9332 14.6985 59.9332 13.4033C59.9332 12.1082 58.8833 11.0583 57.5882 11.0583C56.2931 11.0583 55.2432 12.1082 55.2432 13.4033C55.2432 14.6985 56.2931 15.7483 57.5882 15.7483Z" fill="#FFCC4D"/>
<path d="M48.7498 14.6433C49.8471 14.6433 50.7365 13.7538 50.7365 12.6566C50.7365 11.5594 49.8471 10.6699 48.7498 10.6699C47.6526 10.6699 46.7632 11.5594 46.7632 12.6566C46.7632 13.7538 47.6526 14.6433 48.7498 14.6433Z" fill="#F4900C"/>
<path d="M39.8117 8.8451C41.4538 8.8451 42.785 7.5139 42.785 5.87177C42.785 4.22964 41.4538 2.89844 39.8117 2.89844C38.1696 2.89844 36.8384 4.22964 36.8384 5.87177C36.8384 7.5139 38.1696 8.8451 39.8117 8.8451Z" fill="#FFCC4D"/>
<path d="M29.8967 12.1967C31.5388 12.1967 32.87 10.8655 32.87 9.22333C32.87 7.58121 31.5388 6.25 29.8967 6.25C28.2545 6.25 26.9233 7.58121 26.9233 9.22333C26.9233 10.8655 28.2545 12.1967 29.8967 12.1967Z" fill="#F4900C"/>
</svg>
