<svg width="60" height="60" viewBox="0 0 60 60" fill="none" xmlns="http://www.w3.org/2000/svg">
<path d="M17.5 42.5H9.99999C5.94999 42.5 2.39999 39.35 1.89999 35.35L0.64999 27.875C0.37499 25.75 0.97499 23.75 2.27499 22.3C3.57499 20.85 5.47499 20 7.49999 20H22.5C24.575 20 26.45 20.875 27.65 22.4C27.925 22.775 28.175 23.175 28.375 23.625C29.45 23.4 30.55 23.4 31.6 23.625C31.8 23.175 32.05 22.775 32.35 22.4C33.525 20.875 35.4 20 37.5 20H52.5C54.525 20 56.425 20.85 57.725 22.3C59 23.75 59.6 25.75 59.35 27.775L58.075 35.45C57.6 39.35 54.025 42.5 50 42.5H42.5C38.6 42.5 34.8 39.525 33.85 35.75L31.6 28.975C30.65 28.275 29.325 28.275 28.375 28.975L26.075 35.925C25.175 39.55 21.4 42.5 17.5 42.5Z" fill="black"/>
</svg>
