<svg width="60" height="60" viewBox="0 0 60 60" fill="none" xmlns="http://www.w3.org/2000/svg">
<g clip-path="url(#clip0_818_3076)">
<path d="M29.5899 44.6484L14.5899 50.3906C13.8985 50.6484 13.1719 50.1211 13.207 49.3828L14.0274 33.3398C14.0391 33.0938 13.957 32.8477 13.8047 32.6484L3.70314 20.1562C3.23439 19.582 3.51564 18.7266 4.23049 18.5273L19.7461 14.3555C19.9922 14.2852 20.2031 14.1328 20.3321 13.9219L29.0977 0.46875C29.4961 -0.152344 30.4102 -0.152344 30.8086 0.46875L39.5742 13.9336C39.7149 14.1445 39.9258 14.2969 40.1602 14.3672L55.6758 18.5391C56.3906 18.7266 56.6719 19.5938 56.2031 20.168L46.1133 32.6602C45.961 32.8594 45.8789 33.1055 45.8906 33.3516L46.711 49.3945C46.7461 50.1328 46.0195 50.6602 45.3281 50.4023L30.3281 44.6602C30.082 44.5664 29.8242 44.5664 29.5899 44.6484Z" fill="#FFB636"/>
<path d="M53.4494 6.05849L48.6447 1.2538C48.504 1.11318 48.3165 1.05458 48.129 1.07802C47.9415 1.10146 47.7658 1.21865 47.672 1.38271L42.715 11.1444C42.5744 11.3905 42.6212 11.6835 42.8204 11.8827C42.9376 11.9999 43.1017 12.0585 43.254 12.0585C43.3595 12.0585 43.465 12.0351 43.5587 11.9765L53.3087 7.03115C53.4728 6.9374 53.59 6.77333 53.6134 6.57411C53.6486 6.38661 53.5783 6.19911 53.4494 6.05849ZM17.4728 11.1561L12.5158 1.39443C12.422 1.23036 12.258 1.11318 12.0587 1.08974C11.8712 1.0663 11.672 1.1249 11.5431 1.26552L6.73842 6.07021C6.5978 6.21083 6.5392 6.39833 6.56264 6.58583C6.58608 6.77333 6.70326 6.94911 6.86733 7.04286L16.629 11.9999C16.7228 12.0585 16.8283 12.0819 16.9337 12.0819C17.0978 12.0819 17.2501 12.0233 17.3673 11.9061C17.5665 11.6952 17.6017 11.3905 17.4728 11.1561ZM33.9611 59.203L30.5626 48.7968C30.5392 48.6913 30.4806 48.5976 30.4103 48.5272C30.2931 48.4101 30.1408 48.3515 29.9767 48.3515C29.6955 48.3515 29.4611 48.539 29.379 48.8085L25.9806 59.2147C25.9337 59.4022 25.9689 59.6015 26.0861 59.7538C26.2033 59.9061 26.379 59.9999 26.5783 59.9999H33.3634C33.5509 59.9999 33.7384 59.9061 33.8556 59.7538C33.9845 59.5897 34.0197 59.3905 33.9611 59.203Z" fill="#FFD469"/>
</g>
<defs>
<clipPath id="clip0_818_3076">
<rect width="60" height="60" fill="white"/>
</clipPath>
</defs>
</svg>
