<svg width="60" height="60" viewBox="0 0 60 60" fill="none" xmlns="http://www.w3.org/2000/svg">
<path d="M49.1251 54.0001C47.7189 52.5939 48.2814 50.8126 49.2189 49.8751C50.1564 48.9376 51.9376 48.3751 53.3439 49.7814C54.7501 51.1876 55.3126 54.0001 54.2814 54.9376C53.3439 55.9689 50.5314 55.4064 49.1251 54.0001ZM52.4064 40.6876C51.0001 39.2814 51.5626 37.5001 52.5001 36.5626C53.4376 35.6251 55.2189 35.0626 56.6251 36.4689C58.0314 37.8751 58.5939 40.6876 57.5626 41.7189C56.6251 42.6564 53.8126 42.0939 52.4064 40.6876Z" fill="#3E4347"/>
<path d="M12.0938 54C7.78125 54 1.875 52.9687 1.875 48.4687C1.875 43.5 6.75 38.8125 12.0938 38.8125V54Z" fill="#5B7F32"/>
<path d="M22.4062 44.9063C22.4062 53.3438 16.5 54.0938 12.1875 54.0938C7.875 54.0938 3.5625 52.125 3.5625 48.5625C3.5625 44.3437 7.875 38.9062 12.1875 38.9062C16.4062 38.9062 22.4062 40.6875 22.4062 44.9063Z" fill="#94D82A"/>
<path d="M19.8751 54C4.96886 54 4.87511 36.0938 20.1564 36.0938L19.8751 54Z" fill="#5B7F32"/>
<path d="M29.1563 43.2187C29.1563 53.1562 23.9063 54.0937 19.7813 54.0937C6.28129 54.0937 6.65628 36.1875 20.0625 36.1875C24.2813 36.0937 29.1563 38.25 29.1563 43.2187Z" fill="#94D82A"/>
<path d="M28.8748 54C12.8436 54 13.4998 35.25 28.8748 35.25V54Z" fill="#5B7F32"/>
<path d="M39.75 42.6563C39.75 53.0625 33.6563 54 28.875 54C15.6563 54 15.6563 35.25 28.875 35.25C33.5625 35.25 39.75 37.5 39.75 42.6563Z" fill="#94D82A"/>
<path d="M41.9063 54C21.8438 54 23.7188 32.4375 40.5001 32.4375L41.9063 54Z" fill="#5B7F32"/>
<path d="M54.0938 42.3751C54.0938 52.7813 47.4375 54.0938 41.9062 54.0938C25.0312 54.0938 25.0312 32.1563 41.9062 32.1563C47.4375 32.0626 54.0938 37.1251 54.0938 42.3751Z" fill="#94D82A"/>
<path d="M53.8123 40.5937C53.8123 40.5937 50.4373 44.7188 45.2811 45.375C40.0311 46.0313 26.5311 42.375 34.9686 30.6562L53.8123 40.5937Z" fill="#5B7F32"/>
<path d="M55.9688 35.8125C55.9688 41.1562 49.7812 43.5 44.625 43.5C39.4687 43.5 33.2812 41.1562 33.2812 35.8125C33.2812 30.4688 39.4687 24.0938 44.625 24.0938C49.875 24.0938 55.9688 30.4688 55.9688 35.8125Z" fill="#94D82A"/>
<path d="M29.9064 51.375C31.8752 49.4063 33.8439 49.6875 34.8752 50.7188C35.8127 51.6563 36.1877 53.7188 34.2189 55.6875C32.2502 57.6563 28.7814 58.7813 27.7502 57.8438C26.7189 56.8125 27.9377 53.3438 29.9064 51.375ZM31.8752 31.5C33.8439 33.4688 33.5627 35.4375 32.5314 36.4688C31.5939 37.4063 29.5314 37.7813 27.5627 35.8125C25.5939 33.8438 24.4689 30.375 25.4064 29.4375C26.4377 28.4063 29.9064 29.5313 31.8752 31.5ZM19.5002 51.8438C21.1877 50.1563 22.8752 50.4375 23.6252 51.2813C24.4689 52.125 24.7502 53.8125 23.0627 55.4063C21.3752 57.0938 18.4689 58.0313 17.6252 57.1875C16.8752 56.4375 17.8127 53.4375 19.5002 51.8438ZM11.2502 52.125C12.6564 50.7188 14.0627 50.9063 14.8127 51.6563C15.4689 52.3125 15.7502 53.8125 14.3439 55.2188C12.9377 56.625 10.4064 57.4688 9.75017 56.7188C9.00017 56.0625 9.84392 53.5313 11.2502 52.125Z" fill="#3E4347"/>
<path d="M26.625 37.5L25.6875 38.4375L26.625 39.375L27.4688 38.4375L26.625 37.5ZM23.8125 43.2187L22.9688 44.1562L23.8125 45.0937L24.75 44.1562L23.8125 43.2187ZM14.625 38.4375L13.6875 39.375L14.625 40.2188L15.5625 39.375L14.625 38.4375ZM7.59375 42.375L6.75 43.2187L7.59375 44.1562L8.53125 43.2187L7.59375 42.375ZM6.09375 44.4375L5.15625 45.375L6.09375 46.3125L7.03125 45.375L6.09375 44.4375ZM32.4375 41.7188L31.5 42.6563L32.4375 43.5938L33.375 42.6563L32.4375 41.7188ZM34.7812 44.625L33.8437 45.5625L34.7812 46.4063L35.7187 45.5625L34.7812 44.625ZM51.5625 44.1562L50.625 45.0937L51.5625 45.9375L52.4062 45.0937L51.5625 44.1562ZM50.9062 36.6562L49.9688 37.5L50.9062 38.4375L51.75 37.5L50.9062 36.6562ZM37.7812 34.0312L36.8438 34.875L37.7812 35.8125L38.625 34.875L37.7812 34.0312ZM22.9688 37.9688L21.0938 39.75L22.9688 41.625L24.75 39.75L22.9688 37.9688ZM52.6875 32.1562L50.9062 34.0312L52.6875 35.8125L54.4688 34.0312L52.6875 32.1562ZM13.6875 40.9688L11.9062 42.8438L13.6875 44.625L15.5625 42.8438L13.6875 40.9688Z" fill="#5B7F32"/>
<path d="M37.9688 9.65625L37.125 9.5625C37.2187 7.78125 35.9062 5.53125 33.5625 4.875L33.75 4.03125C36.2813 4.78125 38.1563 7.21875 37.9688 9.65625Z" fill="#3E4347"/>
<path d="M35.2498 3.18751C35.9998 4.03126 35.906 5.34376 35.0623 6.09376C34.2185 6.84376 32.906 6.75001 32.156 5.90626C31.406 5.06251 31.4998 3.75001 32.3435 3.00001C33.1873 2.15626 34.4998 2.25001 35.2498 3.18751ZM46.1248 9.18751L46.031 8.34376C47.8123 8.15626 49.6873 6.28126 49.8748 3.93751L50.7185 4.03126C50.531 6.56251 48.4685 8.90626 46.1248 9.18751Z" fill="#3E4347"/>
<path d="M51.9373 5.25002C51.281 6.18752 49.9685 6.28127 49.031 5.62502C48.0935 4.87502 47.9998 3.65627 48.656 2.71877C49.3123 1.78127 50.6248 1.68752 51.5623 2.34377C52.406 3.00002 52.5935 4.31252 51.9373 5.25002Z" fill="#3E4347"/>
<path d="M52.2188 27.8438C49.9688 34.875 36.8438 35.25 35.0625 30.6562L52.2188 27.8438Z" fill="#5B7F32"/>
<path d="M55.5001 21C55.9689 30.75 36.0939 37.4062 30.2814 25.875C25.8751 17.0625 32.8126 7.87498 40.1251 7.03123C52.1251 5.62498 55.3126 16.3125 55.5001 21Z" fill="#94D82A"/>
<path d="M48.0938 17.1562C48.0938 18.75 47.25 19.9687 46.2188 19.9687C45.1875 19.9687 44.3438 18.75 44.3438 17.1562C44.3438 15.5625 45.1875 14.3438 46.2188 14.3438C47.25 14.3438 48.0938 15.6562 48.0938 17.1562Z" fill="#3E4347"/>
<path d="M35.0625 19.9687C36.098 19.9687 36.9375 18.7095 36.9375 17.1562C36.9375 15.6029 36.098 14.3438 35.0625 14.3438C34.027 14.3438 33.1875 15.6029 33.1875 17.1562C33.1875 18.7095 34.027 19.9687 35.0625 19.9687Z" fill="#3E4347"/>
<path d="M40.5938 27.4687C38.3437 27.4687 36.375 26.625 36.375 25.7812C36.375 25.6875 36.375 25.5938 36.4688 25.5C36.5625 25.4063 36.6562 25.4062 36.8438 25.4062C37.0312 25.4062 37.125 25.5 37.4063 25.5937C37.9688 25.7812 39 26.25 40.6875 26.25C42.375 26.25 43.4062 25.7812 43.875 25.5937C44.1562 25.5 44.25 25.4062 44.4375 25.4062C44.625 25.4062 44.8125 25.5 44.8125 25.7812C44.8125 26.625 42.8438 27.4687 40.5938 27.4687Z" fill="#3E4347"/>
<g opacity="0.7">
<path d="M50.3438 24.6562C52.0006 24.6562 53.3438 23.6069 53.3438 22.3125C53.3438 21.0181 52.0006 19.9688 50.3438 19.9688C48.6869 19.9688 47.3438 21.0181 47.3438 22.3125C47.3438 23.6069 48.6869 24.6562 50.3438 24.6562Z" fill="#EA83A3"/>
<path d="M32.25 23.9063C33.5962 23.9063 34.6875 23.1507 34.6875 22.2188C34.6875 21.2868 33.5962 20.5312 32.25 20.5312C30.9038 20.5312 29.8125 21.2868 29.8125 22.2188C29.8125 23.1507 30.9038 23.9063 32.25 23.9063Z" fill="#EA83A3"/>
</g>
</svg>
